<svg width="34" height="22" viewBox="0 0 34 22" fill="none" xmlns="http://www.w3.org/2000/svg">
<g clip-path="url(#clip0_247_355)">
<g filter="url(#filter0_f_247_355)">
<path d="M18.1104 0L18.1148 -0.75H18.1104V0ZM27.6348 1.18945L28.3056 0.854043L28.1952 0.633355L27.9754 0.521284L27.6348 1.18945ZM27.6357 1.19141L26.9649 1.52682L27.085 1.76693L27.3301 1.87632L27.6357 1.19141ZM33.999 11.001L34.749 11.001V11.001H33.999ZM27.6348 20.8105L27.3292 20.1256L27.3114 20.1335L27.2941 20.1424L27.6348 20.8105ZM18.1104 22V22.75L18.1148 22.75L18.1104 22ZM15.8887 22L15.8843 22.75H15.8887V22ZM6.36426 20.8105L6.70494 20.1424L6.68758 20.1335L6.6698 20.1256L6.36426 20.8105ZM0 11.001H-0.75V11.001L0 11.001ZM6.36328 1.19141L6.66888 1.87632L6.91404 1.76693L7.0341 1.52682L6.36328 1.19141ZM6.36426 1.18945L6.0236 0.521284L5.80378 0.633355L5.69344 0.854043L6.36426 1.18945ZM15.8887 0V-0.750013L15.8843 -0.749987L15.8887 0ZM18.1104 0L18.1059 0.749987C23.5635 0.782073 25.5519 0.969349 27.2941 1.85762L27.6348 1.18945L27.9754 0.521284C25.8588 -0.557884 23.4894 -0.718389 18.1148 -0.749987L18.1104 0ZM27.6348 1.18945L26.9639 1.52486L26.9649 1.52682L27.6357 1.19141L28.3066 0.855996L28.3056 0.854043L27.6348 1.18945ZM27.6357 1.19141L27.3301 1.87632C30.8187 3.43285 33.249 6.93347 33.249 11.001H33.999H34.749C34.749 6.3206 31.9512 2.29562 27.9413 0.50649L27.6357 1.19141ZM33.999 11.001L33.249 11.001C33.2489 15.0686 30.8181 18.5693 27.3292 20.1256L27.6348 20.8105L27.9403 21.4955C31.9505 19.7066 34.7489 15.6816 34.749 11.001L33.999 11.001ZM27.6348 20.8105L27.2941 20.1424C25.5516 21.0308 23.5638 21.2179 18.1059 21.25L18.1104 22L18.1148 22.75C23.4896 22.7184 25.8585 22.5581 27.9754 21.4787L27.6348 20.8105ZM18.1104 22V21.25H15.8887V22V22.75H18.1104V22ZM15.8887 22L15.8931 21.25C10.4352 21.2179 8.44742 21.0308 6.70494 20.1424L6.36426 20.8105L6.02358 21.4787C8.14052 22.5581 10.5094 22.7184 15.8843 22.75L15.8887 22ZM6.36426 20.8105L6.6698 20.1256C3.18091 18.5693 0.750141 15.0686 0.75 11.001L0 11.001L-0.75 11.001C-0.749838 15.6816 2.04852 19.7066 6.05872 21.4955L6.36426 20.8105ZM0 11.001H0.75C0.75 6.93347 3.18032 3.43285 6.66888 1.87632L6.36328 1.19141L6.05768 0.50649C2.04783 2.29562 -0.75 6.3206 -0.75 11.001H0ZM6.36328 1.19141L7.0341 1.52682L7.03508 1.52486L6.36426 1.18945L5.69344 0.854043L5.69246 0.855996L6.36328 1.19141ZM6.36426 1.18945L6.70492 1.85762C8.44717 0.969349 10.4355 0.782073 15.8931 0.749987L15.8887 0L15.8843 -0.749987C10.5096 -0.718389 8.14026 -0.557884 6.0236 0.521284L6.36426 1.18945ZM15.8887 0V0.75H18.1104V0V-0.75H15.8887V0Z" fill="url(#paint0_radial_247_355)"/>
</g>
</g>
<defs>
<filter id="filter0_f_247_355" x="-1.5" y="-1.5" width="36.999" height="25" filterUnits="userSpaceOnUse" color-interpolation-filters="sRGB">
<feFlood flood-opacity="0" result="BackgroundImageFix"/>
<feBlend mode="normal" in="SourceGraphic" in2="BackgroundImageFix" result="shape"/>
<feGaussianBlur stdDeviation="0.375" result="effect1_foregroundBlur_247_355"/>
</filter>
<radialGradient id="paint0_radial_247_355" cx="0" cy="0" r="1" gradientUnits="userSpaceOnUse" gradientTransform="scale(22.6672 22)">
<stop stop-color="white"/>
<stop offset="1" stop-color="white" stop-opacity="0"/>
</radialGradient>
<clipPath id="clip0_247_355">
<rect width="34" height="22" fill="white"/>
</clipPath>
</defs>
</svg>
