<svg width="34" height="22" viewBox="0 0 34 22" fill="none" xmlns="http://www.w3.org/2000/svg">
<g clip-path="url(#clip0_248_367)">
<g filter="url(#filter0_f_248_367)">
<path d="M15.8896 22L15.8852 22.75H15.8896V22ZM6.36523 20.8105L5.69441 21.146L5.80476 21.3666L6.02457 21.4787L6.36523 20.8105ZM6.36426 20.8086L7.03508 20.4732L6.91502 20.2331L6.66986 20.1237L6.36426 20.8086ZM0.000976562 10.999L-0.749023 10.999V10.999H0.000976562ZM6.36523 1.18945L6.67077 1.8744L6.68856 1.86646L6.70591 1.85761L6.36523 1.18945ZM15.8896 0V-0.750013L15.8852 -0.749987L15.8896 0ZM18.1113 0L18.1157 -0.75H18.1113V0ZM27.6357 1.18945L27.2951 1.85761L27.3124 1.86646L27.3302 1.8744L27.6357 1.18945ZM34 10.999H34.75V10.999L34 10.999ZM27.6367 20.8086L27.3311 20.1237L27.086 20.2331L26.9659 20.4732L27.6367 20.8086ZM27.6357 20.8105L27.9764 21.4787L28.1962 21.3666L28.3066 21.146L27.6357 20.8105ZM18.1113 22V22.75L18.1157 22.75L18.1113 22ZM15.8896 22L15.8941 21.25C10.4365 21.2179 8.44814 21.0307 6.7059 20.1424L6.36523 20.8105L6.02457 21.4787C8.14124 22.5579 10.5106 22.7184 15.8852 22.75L15.8896 22ZM6.36523 20.8105L7.03605 20.4751L7.03508 20.4732L6.36426 20.8086L5.69344 21.144L5.69441 21.146L6.36523 20.8105ZM6.36426 20.8086L6.66986 20.1237C3.1813 18.5671 0.750977 15.0665 0.750977 10.999H0.000976562H-0.749023C-0.749023 15.6794 2.0488 19.7044 6.05866 21.4935L6.36426 20.8086ZM0.000976562 10.999L0.750977 10.999C0.751118 6.93142 3.18188 3.43072 6.67077 1.8744L6.36523 1.18945L6.05969 0.504511C2.0495 2.29338 -0.748863 6.31844 -0.749023 10.999L0.000976562 10.999ZM6.36523 1.18945L6.70591 1.85761C8.4484 0.969166 10.4362 0.782093 15.8941 0.749987L15.8896 0L15.8852 -0.749987C10.5104 -0.718369 8.14149 -0.558077 6.02456 0.521292L6.36523 1.18945ZM15.8896 0V0.75H18.1113V0V-0.75H15.8896V0ZM18.1113 0L18.1069 0.749987C23.5648 0.782093 25.5526 0.969166 27.2951 1.85761L27.6357 1.18945L27.9764 0.521292C25.8595 -0.558077 23.4906 -0.718369 18.1157 -0.749987L18.1113 0ZM27.6357 1.18945L27.3302 1.8744C30.8191 3.43072 33.2499 6.93142 33.25 10.999L34 10.999L34.75 10.999C34.7498 6.31844 31.9515 2.29338 27.9413 0.504511L27.6357 1.18945ZM34 10.999H33.25C33.25 15.0665 30.8197 18.5671 27.3311 20.1237L27.6367 20.8086L27.9423 21.4935C31.9522 19.7044 34.75 15.6794 34.75 10.999H34ZM27.6367 20.8086L26.9659 20.4732L26.9649 20.4751L27.6357 20.8105L28.3066 21.146L28.3075 21.144L27.6367 20.8086ZM27.6357 20.8105L27.2951 20.1424C25.5528 21.0307 23.5645 21.2179 18.1069 21.25L18.1113 22L18.1157 22.75C23.4904 22.7184 25.8597 22.5579 27.9764 21.4787L27.6357 20.8105ZM18.1113 22V21.25H15.8896V22V22.75H18.1113V22Z" fill="url(#paint0_radial_248_367)" fill-opacity="0.5"/>
</g>
</g>
<defs>
<filter id="filter0_f_248_367" x="-1.49902" y="-1.5" width="36.999" height="25" filterUnits="userSpaceOnUse" color-interpolation-filters="sRGB">
<feFlood flood-opacity="0" result="BackgroundImageFix"/>
<feBlend mode="normal" in="SourceGraphic" in2="BackgroundImageFix" result="shape"/>
<feGaussianBlur stdDeviation="0.375" result="effect1_foregroundBlur_248_367"/>
</filter>
<radialGradient id="paint0_radial_248_367" cx="0" cy="0" r="1" gradientUnits="userSpaceOnUse" gradientTransform="translate(34 22) rotate(180) scale(22.6672 22)">
<stop stop-color="white"/>
<stop offset="1" stop-color="white" stop-opacity="0"/>
</radialGradient>
<clipPath id="clip0_248_367">
<rect width="34" height="22" fill="white"/>
</clipPath>
</defs>
</svg>
